<?xml version="1.0" standalone="no"?>
<!DOCTYPE svg PUBLIC "-//W3C//DTD SVG 20010904//EN"
 "http://www.w3.org/TR/2001/REC-SVG-20010904/DTD/svg10.dtd">
<svg version="1.0" xmlns="http://www.w3.org/2000/svg"
 width="201.000000pt" height="201.000000pt" viewBox="0 0 201.000000 201.000000"
 preserveAspectRatio="xMidYMid meet">
<metadata>
Created by potrace 1.14, written by Peter Selinger 2001-2017
</metadata>
<g transform="translate(0.000000,201.000000) scale(0.100000,-0.100000)"
fill="#000000" stroke="none">
<path d="M334 1750 c-12 -4 -31 -21 -43 -36 -20 -26 -21 -36 -21 -284 0 -217
-2 -260 -15 -270 -12 -10 -15 -37 -15 -126 0 -62 4 -116 10 -119 5 -3 14 -23
20 -44 5 -20 21 -48 36 -62 l26 -24 676 1 676 2 28 31 c17 19 28 43 28 60 0
16 6 31 15 35 22 8 22 228 0 246 -13 10 -15 54 -15 272 l0 260 -34 34 -34 34
-658 -1 c-363 0 -669 -4 -680 -9z m392 -371 c77 -72 24 -209 -81 -209 -80 0
-142 90 -111 164 31 74 135 99 192 45z m694 16 c41 -21 60 -53 60 -103 0 -107
-115 -161 -194 -91 -108 94 7 260 134 194z m-260 -65 l0 -70 -155 0 -155 0 0
70 0 70 155 0 155 0 0 -70z m-320 -410 c23 -23 24 -33 10 -61 -12 -22 -59 -26
-78 -7 -18 18 -15 65 6 77 25 15 40 13 62 -9z m402 -3 c12 -19 9 -54 -6 -66
-46 -39 -111 25 -71 69 20 22 62 20 77 -3z m-571 -16 c20 -16 22 -23 14 -47
-18 -52 -95 -42 -95 12 0 20 32 54 51 54 4 0 17 -9 30 -19z m727 3 c41 -29 23
-84 -28 -84 -48 0 -67 45 -33 82 20 22 32 23 61 2z"/>
<path d="M1848 904 c-18 -9 -33 -31 -45 -64 -21 -60 19 -46 -385 -135 -164
-36 -321 -65 -350 -65 -46 0 -625 90 -774 121 l-52 10 -4 51 c-7 65 -35 93
-87 84 -57 -9 -76 -36 -76 -109 0 -53 -5 -69 -33 -111 -37 -57 -40 -86 -13
-110 46 -42 116 -16 159 56 9 16 25 28 37 28 43 1 525 -74 518 -80 -8 -7 -351
-60 -384 -60 -11 0 -19 12 -23 33 -14 77 -67 100 -124 52 -39 -33 -44 -68 -21
-137 11 -33 19 -85 19 -121 0 -36 5 -68 12 -75 7 -7 31 -12 55 -12 48 0 58 12
69 79 8 50 -24 40 401 125 l320 64 268 -56 268 -57 12 -49 c18 -70 49 -89 110
-66 29 11 55 63 55 109 0 18 13 49 31 75 35 49 40 87 15 115 -39 43 -89 35
-137 -22 l-27 -31 -102 12 c-56 7 -111 17 -123 21 -21 8 -21 8 -2 14 11 3 102
20 203 38 l184 32 29 -36 c31 -38 66 -51 110 -42 50 11 55 38 20 109 -28 56
-31 67 -25 127 6 62 5 67 -17 83 -29 20 -55 20 -91 0z"/>
</g>
</svg>
